HIERARCHY
ROOT newVegas:Hips
{
	OFFSET 0.000000 96.479958 0.000000
	CHANNELS 6 Xposition Yposition Zposition Xrotation Yrotation Zrotation
	JOINT newVegas:Pelvis
	{
		OFFSET 0.000000 0.000000 0.000000
		CHANNELS 3 Xrotation Yrotation Zrotation
		JOINT newVegas:LeftUpLeg
		{
			OFFSET 18.735201 -5.666702 -4.541200
			CHANNELS 3 Xrotation Yrotation Zrotation
			JOINT newVegas:LeftLeg
			{
				OFFSET -0.021200 -31.938179 0.493100
				CHANNELS 3 Xrotation Yrotation Zrotation
				JOINT newVegas:LeftFoot
				{
					OFFSET 0.021200 -31.938179 -4.336299
					CHANNELS 3 Xrotation Yrotation Zrotation
					JOINT newVegas:LeftToeBase
					{
						OFFSET 0.943001 -26.722000 15.023500
						CHANNELS 3 Xrotation Yrotation Zrotation
						End Site
						{
							OFFSET 0.000000 30.670183 0.000000
						}
					}
				}
				JOINT newVegas:Left_PantLeg
				{
					OFFSET 0.663870 -9.044666 -1.108900
					CHANNELS 3 Xrotation Yrotation Zrotation
					End Site
					{
						OFFSET 1.415995 20.635357 0.000000
					}
				}
			}
		}
		JOINT newVegas:RightUpLeg
		{
			OFFSET -18.735201 -5.666702 -4.541200
			CHANNELS 3 Xrotation Yrotation Zrotation
			JOINT newVegas:RightLeg
			{
				OFFSET 0.018946 -31.938133 0.493100
				CHANNELS 3 Xrotation Yrotation Zrotation
				JOINT newVegas:RightFoot
				{
					OFFSET -0.018946 -31.938126 -4.336299
					CHANNELS 3 Xrotation Yrotation Zrotation
					JOINT newVegas:RightToeBase
					{
						OFFSET -0.943001 -26.722004 15.023500
						CHANNELS 3 Xrotation Yrotation Zrotation
						End Site
						{
							OFFSET 0.000000 30.670187 0.000000
						}
					}
				}
				JOINT newVegas:Right_PantLeg
				{
					OFFSET -0.661674 -9.044716 -1.108900
					CHANNELS 3 Xrotation Yrotation Zrotation
					End Site
					{
						OFFSET -1.415958 20.635269 0.000000
					}
				}
			}
		}
	}
	JOINT newVegas:Spine
	{
		OFFSET 0.000000 10.199997 -0.299500
		CHANNELS 3 Xrotation Yrotation Zrotation
		JOINT newVegas:Spine1
		{
			OFFSET 0.000000 11.900002 -1.516600
			CHANNELS 3 Xrotation Yrotation Zrotation
			JOINT newVegas:Spine2
			{
				OFFSET 0.000000 13.600006 -2.842500
				CHANNELS 3 Xrotation Yrotation Zrotation
				JOINT newVegas:Neck
				{
					OFFSET 0.000000 9.624100 -2.890100
					CHANNELS 3 Xrotation Yrotation Zrotation
					JOINT newVegas:Head
					{
						OFFSET 0.000000 14.068802 -1.351900
						CHANNELS 3 Xrotation Yrotation Zrotation
						JOINT newVegas:Hair_Back
						{
							OFFSET 0.000000 3.231903 -17.524799
							CHANNELS 3 Xrotation Yrotation Zrotation
							End Site
							{
								OFFSET 0.000000 19.849884 0.000000
							}
						}
						JOINT newVegas:Hair_Front
						{
							OFFSET 0.000000 31.260406 4.573800
							CHANNELS 3 Xrotation Yrotation Zrotation
							JOINT newVegas:Hair_Front1
							{
								OFFSET 0.000000 2.284103 11.993300
								CHANNELS 3 Xrotation Yrotation Zrotation
								JOINT newVegas:Hair_Front2
								{
									OFFSET 0.000000 2.284103 11.993300
									CHANNELS 3 Xrotation Yrotation Zrotation
									End Site
									{
										OFFSET 0.000000 12.208862 0.000000
									}
								}
							}
						}
						JOINT newVegas:Jowel
						{
							OFFSET 0.000000 -7.458206 6.864100
							CHANNELS 3 Xrotation Yrotation Zrotation
							End Site
							{
								OFFSET 0.000000 19.849884 0.000000
							}
						}
					}
				}
				JOINT newVegas:LeftShoulder
				{
					OFFSET 15.263000 10.923401 -0.547700
					CHANNELS 3 Xrotation Yrotation Zrotation
					JOINT newVegas:LeftArm
					{
						OFFSET 25.438599 -2.830597 -13.032500
						CHANNELS 3 Xrotation Yrotation Zrotation
						JOINT newVegas:LeftForeArm
						{
							OFFSET 29.960503 0.000000 0.000000
							CHANNELS 3 Xrotation Yrotation Zrotation
							JOINT newVegas:LeftHand
							{
								OFFSET 27.849251 0.000000 0.000000
								CHANNELS 3 Xrotation Yrotation Zrotation
								JOINT newVegas:LeftHandThumb1
								{
									OFFSET 4.487587 -3.305161 6.305391
									CHANNELS 3 Xrotation Yrotation Zrotation
									JOINT newVegas:LeftHandThumb2
									{
										OFFSET 5.480453 -3.164139 3.164143
										CHANNELS 3 Xrotation Yrotation Zrotation
										JOINT newVegas:LeftHandThumb3
										{
											OFFSET 5.159721 -2.978973 2.978967
											CHANNELS 3 Xrotation Yrotation Zrotation
											End Site
											{
												OFFSET 2.494507 5.926697 1.738678
											}
										}
									}
								}
								JOINT newVegas:LeftHandIndex1
								{
									OFFSET 18.578728 -0.527832 5.208049
									CHANNELS 3 Xrotation Yrotation Zrotation
									JOINT newVegas:LeftHandIndex2
									{
										OFFSET 3.192009 0.000000 0.000000
										CHANNELS 3 Xrotation Yrotation Zrotation
										JOINT newVegas:LeftHandIndex3
										{
											OFFSET 3.835129 0.000000 0.000000
											CHANNELS 3 Xrotation Yrotation Zrotation
											End Site
											{
												OFFSET -0.034599 3.816971 0.371180
											}
										}
									}
								}
								JOINT newVegas:LeftHandMiddle1
								{
									OFFSET 18.476105 0.000000 0.000000
									CHANNELS 3 Xrotation Yrotation Zrotation
									JOINT newVegas:LeftHandMiddle2
									{
										OFFSET 3.324875 0.000000 0.000000
										CHANNELS 3 Xrotation Yrotation Zrotation
										JOINT newVegas:LeftHandMiddle3
										{
											OFFSET 4.596550 0.000000 0.000000
											CHANNELS 3 Xrotation Yrotation Zrotation
											End Site
											{
												OFFSET 0.057701 4.578827 0.399218
											}
										}
									}
								}
								JOINT newVegas:LeftHandRing1
								{
									OFFSET 17.732719 0.121887 -4.201567
									CHANNELS 3 Xrotation Yrotation Zrotation
									JOINT newVegas:LeftHandRing2
									{
										OFFSET 2.733170 0.000000 0.000000
										CHANNELS 3 Xrotation Yrotation Zrotation
										JOINT newVegas:LeftHandRing3
										{
											OFFSET 3.178268 0.000000 0.000000
											CHANNELS 3 Xrotation Yrotation Zrotation
											End Site
											{
												OFFSET 0.119102 3.170624 0.185394
											}
										}
									}
								}
								JOINT newVegas:LeftHandPinky1
								{
									OFFSET 15.989624 -0.606689 -7.535461
									CHANNELS 3 Xrotation Yrotation Zrotation
									JOINT newVegas:LeftHandPinky2
									{
										OFFSET 2.538986 0.000000 0.000000
										CHANNELS 3 Xrotation Yrotation Zrotation
										JOINT newVegas:LeftHandPinky3
										{
											OFFSET 2.593102 0.000000 0.000000
											CHANNELS 3 Xrotation Yrotation Zrotation
											End Site
											{
												OFFSET -0.150902 2.584198 0.152708
											}
										}
									}
								}
							}
							JOINT newVegas:Left_Sleeve
							{
								OFFSET 0.267448 -0.649796 0.577675
								CHANNELS 3 Xrotation Yrotation Zrotation
								End Site
								{
									OFFSET 0.000000 15.991241 0.000000
								}
							}
							JOINT newVegas:Left_CapeC
							{
								OFFSET 15.715958 -8.608795 -6.935905
								CHANNELS 3 Xrotation Yrotation Zrotation
								JOINT newVegas:Left_CapeC1
								{
									OFFSET 0.000000 -8.688499 0.000000
									CHANNELS 3 Xrotation Yrotation Zrotation
									End Site
									{
										OFFSET 0.000000 8.688499 0.000000
									}
								}
							}
						}
						JOINT newVegas:Left_CapeB
						{
							OFFSET 26.118385 -8.608795 -7.079235
							CHANNELS 3 Xrotation Yrotation Zrotation
							JOINT newVegas:Left_CapeB1
							{
								OFFSET 0.000000 -8.688499 0.000000
								CHANNELS 3 Xrotation Yrotation Zrotation
								End Site
								{
									OFFSET 0.000000 8.688499 0.000000
								}
							}
						}
						JOINT newVegas:Left_CapeA
						{
							OFFSET 5.115639 -8.608795 -10.395809
							CHANNELS 3 Xrotation Yrotation Zrotation
							JOINT newVegas:Left_CapeA1
							{
								OFFSET 0.000000 -8.688499 0.000000
								CHANNELS 3 Xrotation Yrotation Zrotation
								End Site
								{
									OFFSET 0.000000 8.688499 0.000000
								}
							}
						}
					}
				}
				JOINT newVegas:RightShoulder
				{
					OFFSET -15.263000 10.923401 -0.547700
					CHANNELS 3 Xrotation Yrotation Zrotation
					JOINT newVegas:RightArm
					{
						OFFSET -25.438599 -2.830597 -13.032500
						CHANNELS 3 Xrotation Yrotation Zrotation
						JOINT newVegas:RightForeArm
						{
							OFFSET -29.960503 0.000000 0.000000
							CHANNELS 3 Xrotation Yrotation Zrotation
							JOINT newVegas:RightHand
							{
								OFFSET -27.849251 0.000000 0.000000
								CHANNELS 3 Xrotation Yrotation Zrotation
								JOINT newVegas:RightHandThumb1
								{
									OFFSET -4.487587 -3.305161 6.305391
									CHANNELS 3 Xrotation Yrotation Zrotation
									JOINT newVegas:RightHandThumb2
									{
										OFFSET -5.480453 -3.164139 3.164143
										CHANNELS 3 Xrotation Yrotation Zrotation
										JOINT newVegas:RightHandThumb3
										{
											OFFSET -5.159721 -2.978973 2.978967
											CHANNELS 3 Xrotation Yrotation Zrotation
											End Site
											{
												OFFSET -2.494507 5.926697 1.738678
											}
										}
									}
								}
								JOINT newVegas:RightHandIndex1
								{
									OFFSET -18.578728 -0.527832 5.208049
									CHANNELS 3 Xrotation Yrotation Zrotation
									JOINT newVegas:RightHandIndex2
									{
										OFFSET -3.192009 0.000000 0.000000
										CHANNELS 3 Xrotation Yrotation Zrotation
										JOINT newVegas:RightHandIndex3
										{
											OFFSET -3.835129 0.000000 0.000000
											CHANNELS 3 Xrotation Yrotation Zrotation
											End Site
											{
												OFFSET 0.034599 3.816971 0.371180
											}
										}
									}
								}
								JOINT newVegas:RightHandMiddle1
								{
									OFFSET -18.476105 0.000000 0.000000
									CHANNELS 3 Xrotation Yrotation Zrotation
									JOINT newVegas:RightHandMiddle2
									{
										OFFSET -3.324875 0.000000 0.000000
										CHANNELS 3 Xrotation Yrotation Zrotation
										JOINT newVegas:RightHandMiddle3
										{
											OFFSET -4.596550 0.000000 0.000000
											CHANNELS 3 Xrotation Yrotation Zrotation
											End Site
											{
												OFFSET -0.057701 4.578827 0.399218
											}
										}
									}
								}
								JOINT newVegas:RightHandRing1
								{
									OFFSET -17.732719 0.121887 -4.201567
									CHANNELS 3 Xrotation Yrotation Zrotation
									JOINT newVegas:RightHandRing2
									{
										OFFSET -2.733170 0.000000 0.000000
										CHANNELS 3 Xrotation Yrotation Zrotation
										JOINT newVegas:RightHandRing3
										{
											OFFSET -3.178268 0.000000 0.000000
											CHANNELS 3 Xrotation Yrotation Zrotation
											End Site
											{
												OFFSET -0.119102 3.170624 0.185394
											}
										}
									}
								}
								JOINT newVegas:RightHandPinky1
								{
									OFFSET -15.989624 -0.606689 -7.535461
									CHANNELS 3 Xrotation Yrotation Zrotation
									JOINT newVegas:RightHandPinky2
									{
										OFFSET -2.538986 0.000000 0.000000
										CHANNELS 3 Xrotation Yrotation Zrotation
										JOINT newVegas:RightHandPinky3
										{
											OFFSET -2.593102 0.000000 0.000000
											CHANNELS 3 Xrotation Yrotation Zrotation
											End Site
											{
												OFFSET 0.150902 2.584198 0.152708
											}
										}
									}
								}
							}
							JOINT newVegas:Right_CapeC
							{
								OFFSET -15.715958 -8.608795 -6.935905
								CHANNELS 3 Xrotation Yrotation Zrotation
								JOINT newVegas:Right_CapeC1
								{
									OFFSET 0.000000 -8.688499 0.000000
									CHANNELS 3 Xrotation Yrotation Zrotation
									End Site
									{
										OFFSET 0.000000 8.688499 0.000000
									}
								}
							}
							JOINT newVegas:Right_Sleeve
							{
								OFFSET -0.267448 -0.649994 0.577675
								CHANNELS 3 Xrotation Yrotation Zrotation
								End Site
								{
									OFFSET 0.000000 15.991302 0.000000
								}
							}
						}
						JOINT newVegas:Right_CapeA
						{
							OFFSET -5.115540 -8.608795 -10.395824
							CHANNELS 3 Xrotation Yrotation Zrotation
							JOINT newVegas:Right_CapeA1
							{
								OFFSET 0.000000 -8.688499 0.000000
								CHANNELS 3 Xrotation Yrotation Zrotation
								End Site
								{
									OFFSET 0.000000 8.688499 0.000000
								}
							}
						}
						JOINT newVegas:Right_CapeB
						{
							OFFSET -26.118187 -8.608795 -7.079266
							CHANNELS 3 Xrotation Yrotation Zrotation
							JOINT newVegas:Right_CapeB1
							{
								OFFSET 0.000000 -8.688499 0.000000
								CHANNELS 3 Xrotation Yrotation Zrotation
								End Site
								{
									OFFSET 0.000000 8.688499 0.000000
								}
							}
						}
					}
				}
				JOINT newVegas:Left_Collar
				{
					OFFSET 18.625099 8.655502 8.828100
					CHANNELS 3 Xrotation Yrotation Zrotation
					JOINT newVegas:Left_Collar1
					{
						OFFSET 14.783401 10.540405 -1.259500
						CHANNELS 3 Xrotation Yrotation Zrotation
						End Site
						{
							OFFSET 0.000000 18.199875 0.000000
						}
					}
				}
				JOINT newVegas:Collar_Back
				{
					OFFSET 0.000000 15.630707 -20.132601
					CHANNELS 3 Xrotation Yrotation Zrotation
					End Site
					{
						OFFSET 0.000000 22.523010 0.000000
					}
				}
				JOINT newVegas:Left_Peck
				{
					OFFSET 17.239599 -5.132599 25.482599
					CHANNELS 3 Xrotation Yrotation Zrotation
					End Site
					{
						OFFSET 0.000000 22.523010 0.000000
					}
				}
				JOINT newVegas:Right_Peck
				{
					OFFSET -17.239599 -5.132202 25.482599
					CHANNELS 3 Xrotation Yrotation Zrotation
					End Site
					{
						OFFSET 0.000000 22.523010 0.000000
					}
				}
				JOINT newVegas:Right_Collar
				{
					OFFSET -18.625099 8.655792 8.828100
					CHANNELS 3 Xrotation Yrotation Zrotation
					JOINT newVegas:Right_Collar1
					{
						OFFSET -14.783401 10.539993 -1.259500
						CHANNELS 3 Xrotation Yrotation Zrotation
						End Site
						{
							OFFSET 0.000000 18.199631 0.000000
						}
					}
				}
			}
		}
		JOINT newVegas:Belly
		{
			OFFSET 0.000000 -6.540398 9.014299
			CHANNELS 3 Xrotation Yrotation Zrotation
			End Site
			{
				OFFSET 0.000000 11.566666 0.000000
			}
		}
	}
	JOINT newVegas:ElvisFacialAnim_Joint
	{
		OFFSET 1.000000 -95.330101 -8.825800
		CHANNELS 3 Xrotation Yrotation Zrotation
		End Site
		{
			OFFSET 0.000000 35.315800 0.000000
		}
	}
}
MOTION
Frames: 4
Frame Time: 0.033333
-65.603714 96.391006 70.172432 -0.593476 66.072422 10.250371 0.000000 0.000001 -0.000001 -76.432556 9.412165 34.221536 99.093081 -4.783394 -3.418131 11.268442 4.621391 -9.561906 0.000001 -0.000001 -0.000000 0.000002 0.000000 0.000000 -16.864352 -13.491872 -18.299583 33.685540 0.217539 1.095753 -13.564792 -9.117924 4.426859 0.000000 0.000003 -0.000000 0.000001 0.000005 -0.000002 2.781180 3.600343 0.241925 5.669992 7.120422 -0.828276 5.669992 7.120411 -0.828273 3.688270 -0.105415 -0.870183 3.688245 -0.105410 -0.870193 -0.000001 0.000000 -0.000000 3.688261 -0.105388 -0.870191 3.688312 -0.105484 -0.870179 -0.000001 0.000000 -0.000001 -0.000001 0.000000 -0.000000 -2.580963 -12.904026 -18.562479 23.058249 11.488907 -64.470367 -0.053299 -116.909916 -0.025463 28.621522 5.237964 1.031633 -6.896644 -1.280044 10.377014 2.321130 6.714517 2.170930 -0.000000 -0.000001 -0.000006 -0.023966 -0.779297 -8.680746 0.067996 0.764268 -16.879055 -0.000003 -0.000003 -0.000004 -0.137398 0.619958 -12.274834 -0.085867 -0.354752 -10.511362 -0.000000 -0.000002 -0.000003 -0.092239 7.427038 -16.709764 -0.123183 -1.634668 -13.116359 0.000001 -0.000006 -0.000004 -0.102786 13.410962 -11.521762 -0.510042 -5.458660 -22.584482 -0.000001 -0.000003 -0.000001 0.000002 0.000001 -0.000001 0.000002 0.000001 -0.000001 0.000001 0.000001 -0.000001 0.000000 0.000000 -0.000001 0.000000 -0.000001 -0.000002 0.000000 0.000000 -0.000001 0.000000 -0.000001 -0.000000 2.079927 12.491150 -1.158115 -1.740826 10.571633 45.516558 0.012530 56.998178 -0.107361 12.267484 6.817825 -12.470257 -4.937122 0.753327 -8.006599 2.321136 -6.714514 -2.170927 0.000001 -0.000002 -0.000003 -1.251784 1.192202 -7.145868 0.146866 -1.190788 18.859240 0.000002 -0.000002 0.000002 -1.139342 -1.617048 6.255059 -0.091504 0.269154 12.512872 -0.000000 -0.000000 -0.000003 1.290471 -6.947336 17.451432 -0.208210 2.092256 15.053880 -0.000001 -0.000001 -0.000002 2.944710 -12.249927 15.257149 -0.870203 6.977985 24.261418 -0.000003 -0.000000 -0.000002 -0.000003 0.000001 -0.000000 -0.000003 0.000001 0.000002 -0.000003 0.000001 0.000002 -0.000002 -0.000001 -0.000001 -0.000002 0.000000 0.000000 -0.000002 -0.000001 -0.000001 -0.000002 0.000000 0.000002 -0.000001 -0.000000 0.000001 -0.000001 -0.000000 0.000001 -0.000001 -0.000000 0.000001 -0.000001 -0.000000 0.000001 -0.000001 -0.000000 0.000001 -0.000001 -0.000000 0.000001 -0.000001 -0.000000 0.000001 -0.000000 0.000001 -0.000001 0.000000 0.000001 -0.000001 
-65.638489 95.967079 69.936623 -0.748050 67.396106 9.777843 0.000000 0.000001 -0.000001 -61.788084 17.150248 27.074371 85.775312 -3.836974 -3.123191 6.256271 8.178936 -11.765362 0.000001 0.000001 -0.000000 0.000001 -0.000000 -0.000000 -15.327125 -13.602286 -16.952651 32.905099 0.163561 1.080733 -15.218795 -11.052645 3.875936 0.000000 0.000004 -0.000000 0.000000 -0.000002 -0.000000 2.575768 3.646016 0.456611 5.239509 7.267208 -0.315320 5.239509 7.267215 -0.315321 3.804311 -0.158273 -0.796827 3.804307 -0.158298 -0.796818 0.000000 0.000000 0.000001 3.804315 -0.158277 -0.796829 3.804378 -0.158292 -0.796822 0.000001 0.000000 -0.000000 0.000000 0.000000 0.000001 -2.532658 -13.066324 -18.423151 23.464608 12.410973 -67.586518 -0.058354 -115.465591 -0.027642 26.471995 8.268533 -5.045786 -6.896661 -1.280049 10.377018 2.321144 6.714518 2.170916 0.000001 0.000000 -0.000004 -0.023980 -0.779293 -8.680761 0.067986 0.764274 -16.879057 -0.000004 -0.000000 -0.000002 -0.137396 0.619960 -12.274818 -0.085874 -0.354741 -10.511355 -0.000003 -0.000001 0.000001 -0.092247 7.427037 -16.709769 -0.123179 -1.634671 -13.116368 -0.000001 -0.000004 0.000001 -0.102795 13.410955 -11.521762 -0.510021 -5.458648 -22.584454 -0.000002 -0.000003 -0.000000 0.000000 0.000000 0.000001 0.000000 0.000000 0.000001 -0.000000 -0.000000 0.000001 0.000001 -0.000004 -0.000001 0.000001 -0.000005 -0.000002 0.000001 -0.000004 -0.000001 0.000001 -0.000003 -0.000000 1.859655 12.473484 -0.620950 0.728891 10.048500 45.993049 -0.001520 55.480401 -0.098696 12.222986 6.930304 -12.066246 -4.303546 0.598872 -7.218535 2.321131 -6.714512 -2.170922 0.000001 -0.000002 -0.000001 -1.255403 1.156526 -6.199133 0.155990 -1.213878 19.514084 -0.000000 0.000001 0.000000 -1.122856 -1.684536 7.202564 -0.100492 0.308668 13.166793 0.000003 -0.000001 0.000001 1.263314 -6.863561 18.244224 -0.226907 2.160140 15.705912 -0.000001 -0.000001 0.000002 2.896710 -12.084421 16.243913 -0.917603 7.079406 24.912734 -0.000002 -0.000002 0.000003 0.000001 -0.000003 0.000002 0.000001 -0.000001 -0.000000 0.000001 -0.000003 0.000002 -0.000001 0.000001 0.000001 -0.000001 0.000001 -0.000001 -0.000001 0.000001 0.000001 -0.000001 0.000001 0.000001 -0.000000 -0.000000 -0.000000 -0.000000 -0.000000 -0.000000 -0.000000 -0.000000 -0.000000 -0.000000 -0.000000 -0.000000 -0.000000 -0.000000 -0.000000 -0.000000 -0.000000 -0.000000 -0.000000 -0.000000 -0.000000 -0.000000 -0.000000 0.000001 0.000000 0.000001 -0.000001 
-65.262001 95.425270 69.440460 0.197973 68.314213 8.052072 -0.000000 0.000001 -0.000001 -46.277175 20.798768 18.700062 68.214868 -2.786040 -2.636303 5.050249 8.880238 -15.103143 -0.000000 0.000000 -0.000000 -0.000001 0.000001 -0.000000 -14.610410 -13.608903 -16.137720 32.628493 0.337285 1.096223 -16.446892 -12.414689 4.064739 -0.000000 -0.000000 0.000000 0.000000 0.000002 -0.000001 2.260180 3.659754 0.738916 4.599441 7.325053 0.159623 4.599437 7.325024 0.159626 3.847395 -0.165633 -0.834148 3.847406 -0.165601 -0.834150 0.000000 -0.000000 0.000000 3.847328 -0.165602 -0.834149 3.847549 -0.165603 -0.834152 0.000001 -0.000000 0.000000 0.000000 -0.000000 0.000000 -2.490100 -13.230148 -18.309592 23.878309 12.313912 -67.705807 -0.076348 -114.327757 -0.041512 25.780525 9.620939 -12.954287 -6.896648 -1.280042 10.377012 2.321135 6.714510 2.170922 -0.000002 -0.000004 -0.000001 -0.023987 -0.779284 -8.680761 0.068011 0.764266 -16.879049 -0.000000 -0.000005 -0.000000 -0.137404 0.619953 -12.274827 -0.085887 -0.354732 -10.511364 -0.000002 0.000002 -0.000000 -0.092236 7.427040 -16.709764 -0.123168 -1.634671 -13.116350 -0.000000 -0.000001 0.000000 -0.102786 13.410960 -11.521753 -0.510033 -5.458645 -22.584456 -0.000000 -0.000002 -0.000001 -0.000002 0.000000 -0.000000 -0.000002 0.000000 -0.000000 -0.000003 -0.000000 0.000000 -0.000000 0.000003 -0.000000 -0.000000 0.000002 -0.000001 -0.000000 0.000003 -0.000000 -0.000000 0.000003 0.000001 1.578960 12.424744 0.101359 3.020008 9.575048 46.985302 -0.017654 53.775121 -0.084873 12.052260 6.979277 -11.873212 -3.607306 0.438339 -6.339814 2.321128 -6.714514 -2.170923 0.000000 0.000002 0.000001 -1.258727 1.116987 -5.151292 0.166426 -1.239321 20.238890 -0.000004 -0.000000 0.000001 -1.100899 -1.758573 8.251397 -0.110944 0.352273 13.890565 0.000001 -0.000001 0.000001 1.231898 -6.771292 19.121584 -0.248476 2.235004 16.427612 0.000000 -0.000003 0.000002 2.840238 -11.902219 17.335561 -0.971384 7.191028 25.633860 0.000003 0.000002 -0.000000 0.000000 -0.000001 0.000002 -0.000002 -0.000004 0.000003 0.000000 -0.000002 0.000002 -0.000002 -0.000001 -0.000001 -0.000001 -0.000001 -0.000003 -0.000002 -0.000001 -0.000001 -0.000001 -0.000001 -0.000001 0.000001 -0.000000 0.000000 0.000001 -0.000000 0.000000 0.000001 -0.000000 0.000000 0.000001 -0.000000 0.000000 0.000001 -0.000000 0.000000 0.000001 -0.000000 0.000000 0.000001 -0.000000 0.000000 -0.000000 0.000001 0.000000 -0.000000 0.000001 -0.000001 
-64.698265 94.850067 68.813332 1.521239 68.288170 5.240542 0.000000 -0.000000 0.000000 -31.837311 21.369903 11.465726 48.509161 -1.733145 -1.964813 6.278168 8.318893 -17.664604 -0.000000 -0.000000 -0.000000 0.000000 0.000000 0.000000 -14.143045 -13.737760 -14.951465 32.018004 0.464788 1.096942 -16.584492 -12.626452 4.566851 0.000000 0.000002 0.000000 0.000000 0.000002 -0.000002 1.895364 3.642595 1.079293 3.845346 7.325999 0.866426 3.845345 7.325976 0.866432 3.814111 -0.086696 -0.891537 3.814118 -0.086687 -0.891534 -0.000000 0.000000 -0.000001 3.814112 -0.086691 -0.891538 3.814184 -0.086710 -0.891537 0.000003 -0.000000 -0.000000 -0.000000 0.000000 -0.000000 -2.371513 -13.208473 -17.822424 24.313479 11.496222 -66.726351 -0.095763 -113.629424 -0.056619 27.163625 9.250223 -20.323194 -6.896646 -1.280044 10.377029 2.321138 6.714516 2.170900 0.000004 0.000002 -0.000004 -0.023974 -0.779285 -8.680754 0.068015 0.764280 -16.879066 -0.000000 0.000003 -0.000000 -0.137391 0.619962 -12.274814 -0.085871 -0.354745 -10.511357 -0.000000 0.000001 0.000002 -0.092237 7.427041 -16.709759 -0.123191 -1.634671 -13.116396 -0.000001 0.000001 0.000001 -0.102785 13.410959 -11.521752 -0.510029 -5.458653 -22.584475 -0.000000 -0.000005 0.000000 -0.000002 -0.000001 -0.000001 -0.000002 -0.000001 -0.000001 -0.000003 -0.000001 -0.000001 0.000001 0.000000 -0.000002 0.000001 -0.000001 -0.000003 0.000001 0.000000 -0.000002 0.000001 -0.000002 -0.000001 1.173684 12.352315 1.181453 5.163048 9.150024 48.292794 -0.033912 51.889862 -0.068880 11.673623 6.938005 -12.046089 -2.857952 0.276566 -5.378762 2.321130 -6.714513 -2.170920 0.000001 0.000001 -0.000000 -1.261504 1.074006 -4.014245 0.178107 -1.266751 21.025416 -0.000005 -0.000001 0.000003 -1.072653 -1.837955 9.389654 -0.122916 0.399430 14.675952 0.000000 -0.000001 0.000000 1.196190 -6.671708 20.073494 -0.272959 2.315942 17.210916 0.000002 0.000001 0.000002 2.774979 -11.705712 18.519542 -1.031401 7.311365 26.416733 -0.000003 0.000003 -0.000001 -0.000003 0.000002 0.000000 -0.000002 -0.000000 -0.000001 -0.000003 0.000002 0.000000 -0.000002 0.000002 -0.000000 -0.000002 0.000002 -0.000000 -0.000002 0.000002 -0.000000 -0.000001 0.000002 -0.000000 0.000000 0.000000 -0.000001 0.000000 0.000000 -0.000001 0.000000 0.000000 -0.000001 0.000000 0.000000 -0.000001 0.000000 0.000000 -0.000001 0.000000 0.000000 -0.000001 0.000000 0.000000 -0.000001 0.000000 -0.000000 0.000000 0.000000 -0.000000 0.000000 
